<svg xmlns="http://www.w3.org/2000/svg" shape-rendering="geometricPrecision" text-rendering="geometricPrecision" image-rendering="optimizeQuality" fill-rule="evenodd" clip-rule="evenodd" viewBox="0 0 496 512.141"><path d="M247.999 0c69.365 0 130.743 29.009 175.14 74.978C468.482 121.928 496 186.618 496 256.07c0 69.463-27.514 134.151-72.853 181.097-44.398 45.968-105.778 74.974-175.148 74.974-69.374 0-130.751-29.004-175.147-74.97C27.513 390.223 0 325.535 0 256.07c0-69.258 27.461-134.119 72.928-181.193C117.204 29.032 178.438 0 247.999 0zM62.632 392.891c2.924-19.402 13.253-31.954 22.947-43.37 13.308-15.681 31.644-22.342 50.294-26.242-11.89-3.354-21.105-9.124-23.707-16.452 30.68-2.492 41.959-34.367 45.738-67.417 5.759-50.596-2.23-115.694 58.665-140.305 48.353-19.555 110.882 6.768 117.702 76.43-.284 47.339 13.029 127.853 55.4 131.292-2.859 8.054-15.47 13.728-31.092 16.296 19.594 5.023 38.536 12.082 50.666 25.445 10.419 11.479 21.102 24.165 24.122 44.318 26.846-39.042 42.431-86.557 42.431-136.816 0-126.587-98.824-235.868-227.799-235.868-129.717 0-227.797 109.983-227.797 235.868 0 50.263 15.581 97.779 42.43 136.821zm88.927-66.766l-.637-.059c65.967 62.889 130.265 65.106 195.88-1.636-2.179.134-4.382.212-6.592.231h-.037c-18.076.158-55.528-4.572-57.616-28.714-20.855 13.434-48.692 14.669-69.801 1.035-6.616 25.591-38.719 31.038-61.197 29.143zm136.98-45.696c26.914-29.767 31.003-59.727 23.331-97.963-18.504-8.576-30.605-27.429-36.806-55.755-7.408 53.928-73.635 51.613-90.287 61.424 0 31.643-3.275 54.235 15.057 83.314 2.338 3.712 4.619 7.293 7.375 10.267 22.252 23.993 60.298 20.988 81.33-1.287z"/></svg>